# xmcd CD database file
#
# Track frame offsets:
#	150
#	29635
#	56005
#	79594
#	101715
#	130619
#	150412
#	180145
#	204800
#
# Disc length: 3070 seconds
#
# Revision: 0
# Processed by: cddbd v1.5.2PL0 Copyright (c) Steve Scherf et al.
# Submitted via: CDex 1.51
#
DISCID=620bfc09
DTITLE=Wolfgang Walch Quartett - Terra si Siena
DYEAR=1998
DGENRE=Jazz
TTITLE0=Castagneto caducii
TTITLE1=Eat your money
TTITLE2=Violett
TTITLE3=Tucan
TTITLE4=Zahara de los atunes
TTITLE5=Terra di Siena
TTITLE6=Bolero
TTITLE7=Dance for Franz
TTITLE8=Placebo
EXTD=YEAR: 1998
EXTT0=
EXTT1=
EXTT2=
EXTT3=
EXTT4=
EXTT5=
EXTT6=
EXTT7=
EXTT8=
PLAYORDER=
